<?xml version="1.0" encoding="utf-8"?>
<!-- Generator: Adobe Illustrator 17.1.0, SVG Export Plug-In . SVG Version: 6.00 Build 0)  -->
<!DOCTYPE svg PUBLIC "-//W3C//DTD SVG 1.1//EN" "http://www.w3.org/Graphics/SVG/1.1/DTD/svg11.dtd">
<svg version="1.1" id="Layer_1" xmlns="http://www.w3.org/2000/svg" xmlns:xlink="http://www.w3.org/1999/xlink" x="0px" y="0px"
	 viewBox="10 -0.5 180 51" enable-background="new 10 -0.5 180 51" xml:space="preserve">
<g>
	<path fill="none" d="M177.07,48.787C163.2,24.588,138.261,7.545,109.158,4.562C138.261,7.545,163.2,24.589,177.07,48.787
		l12.391,0.001l0-0.017l0,0l0,0.016H177.07z"/>
	<path opacity="0.4" enable-background="new    " d="M10,48.788h3.921h8.93C38.156,22.086,66.938,4.096,99.921,4.096
		c3.092,0,6.147,0.158,9.158,0.467c29.103,2.983,54.041,20.026,67.911,44.224h12.391l0-0.016H190V-0.99H10V48.788h0.338H10z"/>
	<path d="M189.461,48.788H177.07C163.2,24.589,138.261,7.545,109.158,4.562c-3.011-0.309-6.066-0.467-9.158-0.467
		c-32.983,0-61.765,17.99-77.07,44.692H14h-3.583H10l0,0v0.98h12.93h0.568l0.282-0.493C39.408,22.012,68.613,5.076,100,5.076
		s60.592,16.936,76.219,44.199l0.282,0.493h0.568h12.391H190v-0.997l0,0h-0.539L189.461,48.788z"/>
</g>
</svg>
