<?xml version="1.0" encoding="utf-8"?>
<!-- Generator: Adobe Illustrator 17.1.0, SVG Export Plug-In . SVG Version: 6.00 Build 0)  -->
<!DOCTYPE svg PUBLIC "-//W3C//DTD SVG 1.1//EN" "http://www.w3.org/Graphics/SVG/1.1/DTD/svg11.dtd">
<svg version="1.1" id="Layer_1" xmlns="http://www.w3.org/2000/svg" xmlns:xlink="http://www.w3.org/1999/xlink" x="0px" y="0px"
	 viewBox="-38.544 -1048.001 50 1100" enable-background="new -38.544 -1048.001 50 1100" xml:space="preserve">
<g id="Layer_1_1_" display="none">
	
		<radialGradient id="SVGID_1_" cx="55.4511" cy="9.556" r="10.6474" gradientTransform="matrix(2.645000e-012 0.052 0.1767 -7.008000e-012 33.3059 -0.7808)" gradientUnits="userSpaceOnUse">
		<stop  offset="0" style="stop-color:#000000;stop-opacity:0.6"/>
		<stop  offset="0.4606" style="stop-color:#F8F8F8;stop-opacity:0"/>
		<stop  offset="1" style="stop-color:#FFFFFF"/>
	</radialGradient>
	
		<ellipse display="inline" opacity="0.5" fill="url(#SVGID_1_)" enable-background="new    " cx="34.995" cy="2.104" rx="0.834" ry="0.267"/>
	<path display="inline" fill="#CBCC29" d="M40.605-1.671"/>
</g>
<g id="Layer_2">
	<path fill="#CACB28" d="M-13.542-1015.195l13.522,9.934l-5.166-16.073l13.521-9.933H-8.378l-5.164-16.067l-5.163,16.067h-16.71
		l13.519,9.933l-5.166,16.073l13.523-9.934"/>
	<g opacity="0.15">
		<g>
			
				<linearGradient id="SVGID_2_" gradientUnits="userSpaceOnUse" x1="-872.5862" y1="19775.4414" x2="-452.1158" y2="19775.4414" gradientTransform="matrix(0.052 0 0 -0.052 31.8603 2.6014)">
				<stop  offset="0" style="stop-color:#000000"/>
				<stop  offset="1" style="stop-color:#F2F2F2;stop-opacity:0.5271"/>
				<stop  offset="1" style="stop-color:#E2E2E2;stop-opacity:0.8103"/>
				<stop  offset="1" style="stop-color:#FFFFFF;stop-opacity:0"/>
			</linearGradient>
			<path fill="url(#SVGID_2_)" d="M-13.54-1015.195l13.522,9.934l-5.166-16.073l13.521-9.933H-8.376l-5.164-16.067V-1015.195z"/>
		</g>
	</g>
	<path fill="#70A241" d="M-13.542-925.202l13.522,9.934l-5.166-16.073l13.521-9.933H-8.378l-5.164-16.067l-5.163,16.067h-16.71
		l13.519,9.933l-5.165,16.073l13.523-9.934"/>
	<path fill="#389943" d="M-13.543-880.205l13.522,9.934l-5.166-16.073l13.521-9.933H-8.379l-5.164-16.067l-5.163,16.067h-16.71
		l13.519,9.933l-5.165,16.073l13.523-9.934"/>
	<g opacity="0.15">
		<g>
			
				<linearGradient id="SVGID_3_" gradientUnits="userSpaceOnUse" x1="-872.629" y1="18045.7637" x2="-452.1587" y2="18045.7637" gradientTransform="matrix(0.052 0 0 -0.052 31.8603 2.6014)">
				<stop  offset="0" style="stop-color:#000000"/>
				<stop  offset="1" style="stop-color:#F2F2F2;stop-opacity:0.5271"/>
				<stop  offset="1" style="stop-color:#E2E2E2;stop-opacity:0.8103"/>
				<stop  offset="1" style="stop-color:#FFFFFF;stop-opacity:0"/>
			</linearGradient>
			<path fill="url(#SVGID_3_)" d="M-13.542-925.202l13.522,9.934l-5.166-16.073l13.521-9.933H-8.378l-5.164-16.067V-925.202z"/>
		</g>
	</g>
	<g opacity="0.15">
		<g>
			
				<linearGradient id="SVGID_4_" gradientUnits="userSpaceOnUse" x1="-872.5862" y1="17180.9258" x2="-452.1158" y2="17180.9258" gradientTransform="matrix(0.052 0 0 -0.052 31.8603 2.6014)">
				<stop  offset="0" style="stop-color:#000000"/>
				<stop  offset="1" style="stop-color:#F2F2F2;stop-opacity:0.5271"/>
				<stop  offset="1" style="stop-color:#E2E2E2;stop-opacity:0.8103"/>
				<stop  offset="1" style="stop-color:#FFFFFF;stop-opacity:0"/>
			</linearGradient>
			<path fill="url(#SVGID_4_)" d="M-13.54-880.205l13.522,9.934l-5.166-16.073l13.521-9.933H-8.376l-5.164-16.067V-880.205z"/>
		</g>
	</g>
</g>
<g id="Layer_3">
	<path fill="#99B73D" d="M-13.543-970.199l13.522,9.934l-5.166-16.073l13.521-9.933H-8.379l-5.164-16.067l-5.163,16.067h-16.71
		l13.519,9.933l-5.166,16.073l13.523-9.934"/>
	<path fill="#15895F" d="M-13.543-835.208l13.522,9.934l-5.166-16.073l13.521-9.933H-8.379l-5.164-16.067l-5.163,16.067h-16.71
		l13.519,9.933l-5.165,16.073l13.523-9.934"/>
	<path fill="#0C81A1" d="M-13.544-745.214l13.522,9.934l-5.166-16.073l13.521-9.933H-8.38l-5.164-16.067l-5.163,16.067h-16.71
		l13.519,9.933l-5.165,16.073l13.523-9.934"/>
	<path fill="#136799" d="M-13.545-700.218l13.522,9.934l-5.166-16.073l13.521-9.933H-8.381l-5.164-16.067l-5.163,16.067h-16.71
		l13.519,9.933l-5.165,16.073l13.523-9.934"/>
	<path fill="#12756B" d="M-13.544-790.211l13.522,9.934l-5.166-16.073l13.521-9.933H-8.38l-5.164-16.067l-5.163,16.067h-16.71
		l13.519,9.933l-5.165,16.073l13.523-9.934"/>
	<path fill="#0A4C89" d="M-13.542-655.221l13.522,9.934l-5.166-16.073l13.521-9.933H-8.378l-5.164-16.067l-5.163,16.067h-16.71
		l13.519,9.933l-5.165,16.073l13.523-9.934"/>
	<path fill="#362B77" d="M-13.542-565.227l13.522,9.934l-5.166-16.073l13.521-9.933H-8.378l-5.164-16.067l-5.163,16.067h-16.71
		l13.519,9.933l-5.165,16.073l13.523-9.934"/>
	<path fill="#4C2B77" d="M-13.543-520.23l13.522,9.934l-5.166-16.073l13.521-9.933H-8.379l-5.164-16.067l-5.163,16.067h-16.71
		l13.519,9.933l-5.165,16.073l13.523-9.934"/>
	<path fill="#21307C" d="M-13.543-610.224l13.522,9.934l-5.166-16.073l13.521-9.933H-8.379l-5.164-16.067l-5.163,16.067h-16.71
		l13.519,9.933l-5.165,16.073l13.523-9.934"/>
	<path fill="#672E7C" d="M-13.543-475.234l13.522,9.934l-5.166-16.073l13.521-9.933H-8.379l-5.164-16.067l-5.163,16.067h-16.71
		l13.519,9.933l-5.165,16.073l13.523-9.934"/>
	<path fill="#A32C79" d="M-13.544-385.24l13.522,9.934l-5.166-16.073l13.521-9.933H-8.38l-5.164-16.067l-5.163,16.067h-16.71
		l13.519,9.933l-5.165,16.073l13.523-9.934"/>
	<path fill="#A8204A" d="M-13.544-340.243l13.522,9.934l-5.166-16.073l13.521-9.933H-8.38l-5.164-16.067l-5.163,16.067h-16.712
		l13.519,9.933l-5.165,16.073l13.523-9.934"/>
	<path fill="#862C8A" d="M-13.544-430.237l13.522,9.934l-5.166-16.073l13.521-9.933H-8.38l-5.164-16.067l-5.163,16.067h-16.71
		l13.519,9.933l-5.165,16.073l13.523-9.934"/>
	<path fill="#BA2F2F" d="M-13.544-295.246l13.522,9.934l-5.166-16.073l13.521-9.933H-8.38l-5.164-16.067l-5.163,16.067h-16.71
		l13.519,9.933l-5.165,16.073l13.523-9.934"/>
	<path fill="#CC4D23" d="M-13.545-205.253l13.522,9.934l-5.166-16.073l13.521-9.933H-8.38l-5.165-16.067l-5.163,16.067h-16.71
		l13.519,9.933l-5.165,16.073l13.523-9.934"/>
	<path fill="#CA5B1D" d="M-13.545-160.256l13.522,9.934l-5.166-16.073l13.521-9.933H-8.381l-5.164-16.067l-5.163,16.067h-16.71
		l13.519,9.933l-5.165,16.073l13.523-9.934"/>
	<path fill="#BF3C2E" d="M-13.545-250.249l13.522,9.934l-5.166-16.073l13.521-9.933H-8.381l-5.164-16.067l-5.163,16.067h-16.71
		l13.519,9.933l-5.165,16.073l13.523-9.934"/>
	<path fill="#CC7423" d="M-13.546-115.259l13.522,9.934l-5.166-16.073l13.521-9.933H-8.381l-5.165-16.067l-5.163,16.067h-16.71
		l13.519,9.933l-5.165,16.073l13.523-9.934"/>
	<path fill="#CCA22E" d="M-13.546-25.265l13.522,9.934l-5.166-16.073L8.33-41.337H-8.382l-5.164-16.067l-5.163,16.067h-16.71
		l13.519,9.933l-5.165,16.073l13.523-9.934"/>
	<path fill="#CDB72E" d="M-13.547,19.731l13.522,9.934l-5.166-16.073L8.329,3.66H-8.383l-5.164-16.067L-18.71,3.66h-16.71
		l13.519,9.933l-5.165,16.073l13.523-9.934"/>
	<path fill="#CB8A26" d="M-13.546-70.262l13.522,9.934l-5.166-16.073L8.33-86.334H-8.382l-5.164-16.067l-5.163,16.067h-16.71
		l13.519,9.933l-5.165,16.073l13.523-9.934"/>
	<g opacity="0.15">
		<g>
			
				<linearGradient id="SVGID_5_" gradientUnits="userSpaceOnUse" x1="-872.629" y1="18910.6035" x2="-452.1587" y2="18910.6035" gradientTransform="matrix(0.052 0 0 -0.052 31.8603 2.6014)">
				<stop  offset="0" style="stop-color:#000000"/>
				<stop  offset="1" style="stop-color:#F2F2F2;stop-opacity:0.5271"/>
				<stop  offset="1" style="stop-color:#E2E2E2;stop-opacity:0.8103"/>
				<stop  offset="1" style="stop-color:#FFFFFF;stop-opacity:0"/>
			</linearGradient>
			<path fill="url(#SVGID_5_)" d="M-13.542-970.199l13.522,9.934l-5.166-16.073l13.521-9.933H-8.378l-5.164-16.067V-970.199z"/>
		</g>
	</g>
	<g opacity="0.15">
		<g>
			
				<linearGradient id="SVGID_6_" gradientUnits="userSpaceOnUse" x1="-872.6504" y1="16316.0869" x2="-452.1801" y2="16316.0869" gradientTransform="matrix(0.052 0 0 -0.052 31.8603 2.6014)">
				<stop  offset="0" style="stop-color:#000000"/>
				<stop  offset="1" style="stop-color:#F2F2F2;stop-opacity:0.5271"/>
				<stop  offset="1" style="stop-color:#E2E2E2;stop-opacity:0.8103"/>
				<stop  offset="1" style="stop-color:#FFFFFF;stop-opacity:0"/>
			</linearGradient>
			<path fill="url(#SVGID_6_)" d="M-13.543-835.208l13.522,9.934l-5.166-16.073l13.521-9.933H-8.379l-5.164-16.067V-835.208z"/>
		</g>
	</g>
	<g opacity="0.15">
		<g>
			
				<linearGradient id="SVGID_7_" gradientUnits="userSpaceOnUse" x1="-872.6075" y1="15451.248" x2="-452.1372" y2="15451.248" gradientTransform="matrix(0.052 0 0 -0.052 31.8603 2.6014)">
				<stop  offset="0" style="stop-color:#000000"/>
				<stop  offset="1" style="stop-color:#F2F2F2;stop-opacity:0.5271"/>
				<stop  offset="1" style="stop-color:#E2E2E2;stop-opacity:0.8103"/>
				<stop  offset="1" style="stop-color:#FFFFFF;stop-opacity:0"/>
			</linearGradient>
			<path fill="url(#SVGID_7_)" d="M-13.541-790.211l13.522,9.934l-5.166-16.073l13.521-9.933H-8.377l-5.164-16.067V-790.211z"/>
		</g>
	</g>
	<g opacity="0.15">
		<g>
			
				<linearGradient id="SVGID_8_" gradientUnits="userSpaceOnUse" x1="-872.6718" y1="14586.4092" x2="-452.2014" y2="14586.4092" gradientTransform="matrix(0.052 0 0 -0.052 31.8603 2.6014)">
				<stop  offset="0" style="stop-color:#000000"/>
				<stop  offset="1" style="stop-color:#F2F2F2;stop-opacity:0.5271"/>
				<stop  offset="1" style="stop-color:#E2E2E2;stop-opacity:0.8103"/>
				<stop  offset="1" style="stop-color:#FFFFFF;stop-opacity:0"/>
			</linearGradient>
			<path fill="url(#SVGID_8_)" d="M-13.544-745.214l13.522,9.934l-5.166-16.073l13.521-9.933H-8.38l-5.164-16.067V-745.214z"/>
		</g>
	</g>
	<g opacity="0.15">
		<g>
			
				<linearGradient id="SVGID_9_" gradientUnits="userSpaceOnUse" x1="-872.629" y1="13721.5703" x2="-452.1586" y2="13721.5703" gradientTransform="matrix(0.052 0 0 -0.052 31.8603 2.6014)">
				<stop  offset="0" style="stop-color:#000000"/>
				<stop  offset="1" style="stop-color:#F2F2F2;stop-opacity:0.5271"/>
				<stop  offset="1" style="stop-color:#E2E2E2;stop-opacity:0.8103"/>
				<stop  offset="1" style="stop-color:#FFFFFF;stop-opacity:0"/>
			</linearGradient>
			<path fill="url(#SVGID_9_)" d="M-13.542-700.218l13.522,9.934l-5.166-16.073l13.521-9.933H-8.378l-5.164-16.067V-700.218z"/>
		</g>
	</g>
	<g opacity="0.15">
		<g>
			
				<linearGradient id="SVGID_10_" gradientUnits="userSpaceOnUse" x1="-872.6825" y1="12856.7314" x2="-452.2122" y2="12856.7314" gradientTransform="matrix(0.052 0 0 -0.052 31.8603 2.6014)">
				<stop  offset="0" style="stop-color:#000000"/>
				<stop  offset="1" style="stop-color:#F2F2F2;stop-opacity:0.5271"/>
				<stop  offset="1" style="stop-color:#E2E2E2;stop-opacity:0.8103"/>
				<stop  offset="1" style="stop-color:#FFFFFF;stop-opacity:0"/>
			</linearGradient>
			<path fill="url(#SVGID_10_)" d="M-13.545-655.221l13.522,9.934l-5.166-16.073l13.521-9.933H-8.381l-5.164-16.067V-655.221z"/>
		</g>
	</g>
	<g opacity="0.15">
		<g>
			
				<linearGradient id="SVGID_11_" gradientUnits="userSpaceOnUse" x1="-872.6396" y1="11991.8926" x2="-452.1693" y2="11991.8926" gradientTransform="matrix(0.052 0 0 -0.052 31.8603 2.6014)">
				<stop  offset="0" style="stop-color:#000000"/>
				<stop  offset="1" style="stop-color:#F2F2F2;stop-opacity:0.5271"/>
				<stop  offset="1" style="stop-color:#E2E2E2;stop-opacity:0.8103"/>
				<stop  offset="1" style="stop-color:#FFFFFF;stop-opacity:0"/>
			</linearGradient>
			<path fill="url(#SVGID_11_)" d="M-13.542-610.224l13.522,9.934l-5.166-16.073l13.521-9.933H-8.378l-5.164-16.067V-610.224z"/>
		</g>
	</g>
	<g opacity="0.15">
		<g>
			
				<linearGradient id="SVGID_12_" gradientUnits="userSpaceOnUse" x1="-872.7039" y1="11127.0537" x2="-452.2335" y2="11127.0537" gradientTransform="matrix(0.052 0 0 -0.052 31.8603 2.6014)">
				<stop  offset="0" style="stop-color:#000000"/>
				<stop  offset="1" style="stop-color:#F2F2F2;stop-opacity:0.5271"/>
				<stop  offset="1" style="stop-color:#E2E2E2;stop-opacity:0.8103"/>
				<stop  offset="1" style="stop-color:#FFFFFF;stop-opacity:0"/>
			</linearGradient>
			<path fill="url(#SVGID_12_)" d="M-13.546-565.227l13.522,9.934l-5.166-16.073l13.521-9.933H-8.382l-5.164-16.067V-565.227z"/>
		</g>
	</g>
	<g opacity="0.15">
		<g>
			
				<linearGradient id="SVGID_13_" gradientUnits="userSpaceOnUse" x1="-872.661" y1="10262.2148" x2="-452.1907" y2="10262.2148" gradientTransform="matrix(0.052 0 0 -0.052 31.8603 2.6014)">
				<stop  offset="0" style="stop-color:#000000"/>
				<stop  offset="1" style="stop-color:#F2F2F2;stop-opacity:0.5271"/>
				<stop  offset="1" style="stop-color:#E2E2E2;stop-opacity:0.8103"/>
				<stop  offset="1" style="stop-color:#FFFFFF;stop-opacity:0"/>
			</linearGradient>
			<path fill="url(#SVGID_13_)" d="M-13.543-520.23l13.522,9.934l-5.166-16.073l13.521-9.933H-8.379l-5.164-16.067V-520.23z"/>
		</g>
	</g>
	<g opacity="0.15">
		<g>
			
				<linearGradient id="SVGID_14_" gradientUnits="userSpaceOnUse" x1="-872.6718" y1="9397.376" x2="-452.2014" y2="9397.376" gradientTransform="matrix(0.052 0 0 -0.052 31.8603 2.6014)">
				<stop  offset="0" style="stop-color:#000000"/>
				<stop  offset="1" style="stop-color:#F2F2F2;stop-opacity:0.5271"/>
				<stop  offset="1" style="stop-color:#E2E2E2;stop-opacity:0.8103"/>
				<stop  offset="1" style="stop-color:#FFFFFF;stop-opacity:0"/>
			</linearGradient>
			<path fill="url(#SVGID_14_)" d="M-13.544-475.234l13.522,9.934l-5.166-16.073l13.521-9.933H-8.38l-5.164-16.067V-475.234z"/>
		</g>
	</g>
	<g opacity="0.15">
		<g>
			
				<linearGradient id="SVGID_15_" gradientUnits="userSpaceOnUse" x1="-872.629" y1="8532.5371" x2="-452.1586" y2="8532.5371" gradientTransform="matrix(0.052 0 0 -0.052 31.8603 2.6014)">
				<stop  offset="0" style="stop-color:#000000"/>
				<stop  offset="1" style="stop-color:#F2F2F2;stop-opacity:0.5271"/>
				<stop  offset="1" style="stop-color:#E2E2E2;stop-opacity:0.8103"/>
				<stop  offset="1" style="stop-color:#FFFFFF;stop-opacity:0"/>
			</linearGradient>
			<path fill="url(#SVGID_15_)" d="M-13.542-430.237l13.522,9.934l-5.166-16.073l13.521-9.933H-8.378l-5.164-16.067V-430.237z"/>
		</g>
	</g>
	<g opacity="0.15">
		<g>
			
				<linearGradient id="SVGID_16_" gradientUnits="userSpaceOnUse" x1="-872.6932" y1="7667.6987" x2="-452.2228" y2="7667.6987" gradientTransform="matrix(0.052 0 0 -0.052 31.8603 2.6014)">
				<stop  offset="0" style="stop-color:#000000"/>
				<stop  offset="1" style="stop-color:#F2F2F2;stop-opacity:0.5271"/>
				<stop  offset="1" style="stop-color:#E2E2E2;stop-opacity:0.8103"/>
				<stop  offset="1" style="stop-color:#FFFFFF;stop-opacity:0"/>
			</linearGradient>
			<path fill="url(#SVGID_16_)" d="M-13.545-385.24l13.522,9.934l-5.166-16.073l13.521-9.933H-8.381l-5.164-16.067V-385.24z"/>
		</g>
	</g>
	<g opacity="0.15">
		<g>
			
				<linearGradient id="SVGID_17_" gradientUnits="userSpaceOnUse" x1="-872.6503" y1="6802.8599" x2="-452.18" y2="6802.8599" gradientTransform="matrix(0.052 0 0 -0.052 31.8603 2.6014)">
				<stop  offset="0" style="stop-color:#000000"/>
				<stop  offset="1" style="stop-color:#F2F2F2;stop-opacity:0.5271"/>
				<stop  offset="1" style="stop-color:#E2E2E2;stop-opacity:0.8103"/>
				<stop  offset="1" style="stop-color:#FFFFFF;stop-opacity:0"/>
			</linearGradient>
			<path fill="url(#SVGID_17_)" d="M-13.543-340.243l13.522,9.934l-5.166-16.073l13.521-9.933H-8.379l-5.164-16.067V-340.243z"/>
		</g>
	</g>
	<g opacity="0.15">
		<g>
			
				<linearGradient id="SVGID_18_" gradientUnits="userSpaceOnUse" x1="-872.6825" y1="5938.021" x2="-452.2122" y2="5938.021" gradientTransform="matrix(0.052 0 0 -0.052 31.8603 2.6014)">
				<stop  offset="0" style="stop-color:#000000"/>
				<stop  offset="1" style="stop-color:#F2F2F2;stop-opacity:0.5271"/>
				<stop  offset="1" style="stop-color:#E2E2E2;stop-opacity:0.8103"/>
				<stop  offset="1" style="stop-color:#FFFFFF;stop-opacity:0"/>
			</linearGradient>
			<path fill="url(#SVGID_18_)" d="M-13.545-295.246l13.522,9.934l-5.166-16.073l13.521-9.933H-8.381l-5.164-16.067V-295.246z"/>
		</g>
	</g>
	<g opacity="0.15">
		<g>
			
				<linearGradient id="SVGID_19_" gradientUnits="userSpaceOnUse" x1="-872.6396" y1="5073.1821" x2="-452.1693" y2="5073.1821" gradientTransform="matrix(0.052 0 0 -0.052 31.8603 2.6014)">
				<stop  offset="0" style="stop-color:#000000"/>
				<stop  offset="1" style="stop-color:#F2F2F2;stop-opacity:0.5271"/>
				<stop  offset="1" style="stop-color:#E2E2E2;stop-opacity:0.8103"/>
				<stop  offset="1" style="stop-color:#FFFFFF;stop-opacity:0"/>
			</linearGradient>
			<path fill="url(#SVGID_19_)" d="M-13.542-250.249l13.522,9.934l-5.166-16.073l13.521-9.933H-8.378l-5.164-16.067V-250.249z"/>
		</g>
	</g>
	<g opacity="0.15">
		<g>
			
				<linearGradient id="SVGID_20_" gradientUnits="userSpaceOnUse" x1="-872.7039" y1="4208.3438" x2="-452.2335" y2="4208.3438" gradientTransform="matrix(0.052 0 0 -0.052 31.8603 2.6014)">
				<stop  offset="0" style="stop-color:#000000"/>
				<stop  offset="1" style="stop-color:#F2F2F2;stop-opacity:0.5271"/>
				<stop  offset="1" style="stop-color:#E2E2E2;stop-opacity:0.8103"/>
				<stop  offset="1" style="stop-color:#FFFFFF;stop-opacity:0"/>
			</linearGradient>
			<path fill="url(#SVGID_20_)" d="M-13.546-205.253l13.522,9.934l-5.166-16.073l13.521-9.933H-8.382l-5.164-16.067V-205.253z"/>
		</g>
	</g>
	<g opacity="0.15">
		<g>
			
				<linearGradient id="SVGID_21_" gradientUnits="userSpaceOnUse" x1="-872.661" y1="3343.5046" x2="-452.1907" y2="3343.5046" gradientTransform="matrix(0.052 0 0 -0.052 31.8603 2.6014)">
				<stop  offset="0" style="stop-color:#000000"/>
				<stop  offset="1" style="stop-color:#F2F2F2;stop-opacity:0.5271"/>
				<stop  offset="1" style="stop-color:#E2E2E2;stop-opacity:0.8103"/>
				<stop  offset="1" style="stop-color:#FFFFFF;stop-opacity:0"/>
			</linearGradient>
			<path fill="url(#SVGID_21_)" d="M-13.543-160.256l13.522,9.934l-5.166-16.073l13.521-9.933H-8.379l-5.164-16.067V-160.256z"/>
		</g>
	</g>
	<g opacity="0.15">
		<g>
			
				<linearGradient id="SVGID_22_" gradientUnits="userSpaceOnUse" x1="-872.6717" y1="2478.6658" x2="-452.2014" y2="2478.6658" gradientTransform="matrix(0.052 0 0 -0.052 31.8603 2.6014)">
				<stop  offset="0" style="stop-color:#000000"/>
				<stop  offset="1" style="stop-color:#F2F2F2;stop-opacity:0.5271"/>
				<stop  offset="1" style="stop-color:#E2E2E2;stop-opacity:0.8103"/>
				<stop  offset="1" style="stop-color:#FFFFFF;stop-opacity:0"/>
			</linearGradient>
			<path fill="url(#SVGID_22_)" d="M-13.544-115.259l13.522,9.934l-5.166-16.073l13.521-9.933H-8.38l-5.164-16.067V-115.259z"/>
		</g>
	</g>
	<g opacity="0.15">
		<g>
			
				<linearGradient id="SVGID_23_" gradientUnits="userSpaceOnUse" x1="-872.6288" y1="1613.827" x2="-452.1585" y2="1613.827" gradientTransform="matrix(0.052 0 0 -0.052 31.8603 2.6014)">
				<stop  offset="0" style="stop-color:#000000"/>
				<stop  offset="1" style="stop-color:#F2F2F2;stop-opacity:0.5271"/>
				<stop  offset="1" style="stop-color:#E2E2E2;stop-opacity:0.8103"/>
				<stop  offset="1" style="stop-color:#FFFFFF;stop-opacity:0"/>
			</linearGradient>
			<path fill="url(#SVGID_23_)" d="M-13.542-70.262l13.522,9.934l-5.166-16.073l13.521-9.933H-8.378l-5.164-16.067V-70.262z"/>
		</g>
	</g>
	<g opacity="0.15">
		<g>
			
				<linearGradient id="SVGID_24_" gradientUnits="userSpaceOnUse" x1="-872.6931" y1="748.9883" x2="-452.2228" y2="748.9883" gradientTransform="matrix(0.052 0 0 -0.052 31.8603 2.6014)">
				<stop  offset="0" style="stop-color:#000000"/>
				<stop  offset="1" style="stop-color:#F2F2F2;stop-opacity:0.5271"/>
				<stop  offset="1" style="stop-color:#E2E2E2;stop-opacity:0.8103"/>
				<stop  offset="1" style="stop-color:#FFFFFF;stop-opacity:0"/>
			</linearGradient>
			<path fill="url(#SVGID_24_)" d="M-13.545-25.265l13.522,9.934l-5.166-16.073l13.521-9.933H-8.381l-5.164-16.067V-25.265z"/>
		</g>
	</g>
	<g opacity="0.15">
		<g>
			
				<linearGradient id="SVGID_25_" gradientUnits="userSpaceOnUse" x1="-872.6503" y1="-115.8506" x2="-452.1799" y2="-115.8506" gradientTransform="matrix(0.052 0 0 -0.052 31.8603 2.6014)">
				<stop  offset="0" style="stop-color:#000000"/>
				<stop  offset="1" style="stop-color:#F2F2F2;stop-opacity:0.5271"/>
				<stop  offset="1" style="stop-color:#E2E2E2;stop-opacity:0.8103"/>
				<stop  offset="1" style="stop-color:#FFFFFF;stop-opacity:0"/>
			</linearGradient>
			<path fill="url(#SVGID_25_)" d="M-13.543,19.731l13.522,9.934l-5.166-16.073L8.334,3.66H-8.379l-5.164-16.067V19.731z"/>
		</g>
	</g>
</g>
<line fill="none" x1="-13.542" y1="-1047.334" x2="-13.542" y2="29.666"/>
</svg>
